<?xml version="1.0" standalone="no"?><!DOCTYPE svg PUBLIC "-//W3C//DTD SVG 1.1//EN" "http://www.w3.org/Graphics/SVG/1.1/DTD/svg11.dtd"><svg t="1762853464607" class="icon" viewBox="0 0 1024 1024" version="1.1" xmlns="http://www.w3.org/2000/svg" p-id="14134" width="32" height="32" xmlns:xlink="http://www.w3.org/1999/xlink"><path d="M256 64v64H160C107 128 64 171 64 224v96h896v-96c0-53-43-96-96-96h-96V64c0-35.4-28.6-64-64-64s-64 28.6-64 64v64H384V64c0-35.4-28.6-64-64-64S256 28.6 256 64z m704 320H64v544c0 53 43 96 96 96h704c53 0 96-43 96-96V384z" p-id="14135" fill="#eb6d20"></path></svg>