<?xml version="1.0" standalone="no"?><!DOCTYPE svg PUBLIC "-//W3C//DTD SVG 1.1//EN" "http://www.w3.org/Graphics/SVG/1.1/DTD/svg11.dtd"><svg t="1762841698866" class="icon" viewBox="0 0 1280 1024" version="1.1" xmlns="http://www.w3.org/2000/svg" p-id="41452" width="20" height="16" xmlns:xlink="http://www.w3.org/1999/xlink"><path d="M1150.175356 651.272798c0.399922-3.799258 1.599688-7.398555 1.599688-11.197813 0-70.586214-57.388791-127.975005-127.975005-127.975005-25.195079 0-48.390549 7.598516-68.186682 19.996095-35.193126-77.584847-112.977934-131.974224-203.760203-131.974224-123.575864 0-223.956259 100.180434-223.956259 223.956259 0 5.998828 1.399727 11.597735 1.799649 17.396602-99.180629 7.398555-177.76528 89.382542-177.765281 190.562781 0 105.979301 85.983206 191.962507 191.962508 191.962507h543.89377c105.979301 0 191.962507-85.983206 191.962508-191.962507 0-84.183558-54.389377-154.769772-129.574693-180.764695z m-860.631907-45.191173c-87.382933-87.382933-87.382933-229.355204 0-316.538176 87.382933-87.382933 229.355204-87.382933 316.738137 0 19.396212 19.396212 33.7934 41.791838 44.59129 65.387229 19.596173-7.398555 40.19215-11.997657 61.388011-14.997071L771.849248 162.168326c7.998438-23.795352-14.597149-46.190978-38.392501-38.392501L557.891037 182.364382 474.907245 16.796719C463.909393-5.598906 431.915641-5.598906 420.717829 16.796719L337.933997 182.364382 162.168326 123.775825C138.572935 115.977348 115.977348 138.572935 123.775825 162.168326l58.588557 175.56571-165.567663 82.983793c-22.395626 11.197813-22.395626 42.991603 0 54.189416l165.567663 82.783831-58.588557 175.56571c-7.998438 23.795352 14.597149 46.190978 38.392501 38.392501l152.17028-50.590119c12.197618-24.795157 27.994532-47.390744 47.190783-66.986916-26.194884-10.797891-50.79008-26.794767-71.98594-47.990627z m-9.598126-158.369069c0 81.584066 58.588557 149.570787 135.773482 164.567858 15.996876-9.398164 32.593634-17.596563 50.390158-23.395431 10.797891-88.582699 61.987893-164.96778 134.773677-209.958992C574.487795 320.737356 515.899238 279.945323 447.912517 279.945323c-92.581918 0-167.967194 75.185315-167.967194 167.767233z" p-id="41453" fill="#eb6d20"></path></svg>