<?xml version="1.0" standalone="no"?><!DOCTYPE svg PUBLIC "-//W3C//DTD SVG 1.1//EN" "http://www.w3.org/Graphics/SVG/1.1/DTD/svg11.dtd"><svg t="1762866484806" class="icon" viewBox="0 0 1024 1024" version="1.1" xmlns="http://www.w3.org/2000/svg" p-id="29203" width="16" height="16" xmlns:xlink="http://www.w3.org/1999/xlink"><path d="M933.778819 610.25293c-53.726321-93.053092-21.407331-212.281366 72.157745-266.487672l-100.636855-174.298553c-28.735102 16.863473-62.174057 26.527171-97.852942 26.527171-107.548639 0-194.713915-87.741258-194.713915-195.993875l-201.241711 0c0.255992 33.406956-8.063748 67.293897-25.951189 98.23693-53.726321 93.053092-173.146589 124.700103-266.839661 70.749789l-100.604856 174.298553c28.959095 16.479485 54.046311 40.574732 71.869754 71.485766 53.630324 92.893097 21.503328 211.929377-71.709759 266.199681l100.636855 174.298553c28.639105-16.703478 61.918065-26.23918 97.404956-26.23918 107.19665 0 194.137933 87.197275 194.681916 194.937908l201.241711 0c-0.095997-33.086966 8.287741-66.55792 25.951189-97.212962 53.630324-92.893097 172.762601-124.604106 266.391675-71.005781l100.636855-174.298553c-28.767101-16.479485-53.694322-40.510734-71.421768-71.229774zM512 719.337521c-114.492422 0-207.321521-92.829099-207.321521-207.321521s92.829099-207.321521 207.321521-207.321521c114.492422 0 207.321521 92.829099 207.321521 207.321521s-92.829099 207.321521-207.321521 207.321521z" fill="#eb6d20" p-id="29204"></path></svg>