<?xml version="1.0" standalone="no"?><!DOCTYPE svg PUBLIC "-//W3C//DTD SVG 1.1//EN" "http://www.w3.org/Graphics/SVG/1.1/DTD/svg11.dtd"><svg t="1762865014008" class="icon" viewBox="0 0 1024 1024" version="1.1" xmlns="http://www.w3.org/2000/svg" p-id="19879" width="16" height="16" xmlns:xlink="http://www.w3.org/1999/xlink"><path d="M896 576c64 0 64 192 0 192 0 64-27.52 128-64 128 0 64-104.96 64-128 64a885.12 885.12 0 0 1-448-128V448a316.16 316.16 0 0 0 256-320c0-36.48 71.04-114.56 128 0 64 128-64 256 0 256h192c128 0 128 192 64 192zM64 448h128v448H64V448z" fill="#999999" p-id="19880"></path></svg>