<?xml version="1.0" standalone="no"?><!DOCTYPE svg PUBLIC "-//W3C//DTD SVG 1.1//EN" "http://www.w3.org/Graphics/SVG/1.1/DTD/svg11.dtd"><svg t="1762846972000" class="icon" viewBox="0 0 1024 1024" version="1.1" xmlns="http://www.w3.org/2000/svg" p-id="57987" xmlns:xlink="http://www.w3.org/1999/xlink" width="16" height="16"><path d="M384 512c-119.466667 0-213.333333-93.866667-213.333333-213.333333s93.866667-213.333333 213.333333-213.333334 213.333333 93.866667 213.333333 213.333334-93.866667 213.333333-213.333333 213.333333z m0-341.333333C311.466667 170.666667 256 226.133333 256 298.666667s55.466667 128 128 128 128-55.466667 128-128-55.466667-128-128-128zM640 938.666667c-25.6 0-42.666667-17.066667-42.666667-42.666667v-85.333333c0-72.533333-55.466667-128-128-128H298.666667c-72.533333 0-128 55.466667-128 128v85.333333c0 25.6-17.066667 42.666667-42.666667 42.666667s-42.666667-17.066667-42.666667-42.666667v-85.333333c0-119.466667 93.866667-213.333333 213.333334-213.333334h170.666666c119.466667 0 213.333333 93.866667 213.333334 213.333334v85.333333c0 25.6-17.066667 42.666667-42.666667 42.666667zM810.666667 640c-25.6 0-42.666667-17.066667-42.666667-42.666667v-85.333333h-85.333333c-25.6 0-42.666667-17.066667-42.666667-42.666667s17.066667-42.666667 42.666667-42.666666h85.333333V341.333333c0-25.6 17.066667-42.666667 42.666667-42.666666s42.666667 17.066667 42.666666 42.666666v85.333334h85.333334c25.6 0 42.666667 17.066667 42.666666 42.666666s-17.066667 42.666667-42.666666 42.666667h-85.333334v85.333333c0 25.6-17.066667 42.666667-42.666666 42.666667z" p-id="57988" fill="#999999"></path></svg>