<?xml version="1.0" standalone="no"?><!DOCTYPE svg PUBLIC "-//W3C//DTD SVG 1.1//EN" "http://www.w3.org/Graphics/SVG/1.1/DTD/svg11.dtd"><svg t="1762842255519" class="icon" viewBox="0 0 1126 1024" version="1.1" xmlns="http://www.w3.org/2000/svg" p-id="43962" width="17.59375" height="16" xmlns:xlink="http://www.w3.org/1999/xlink"><path d="M998.331864 742.349335c-12.619939-0.204786-51.196506 0-51.196506 0-14.002244 184.972976-130.98626 255.521761-179.18777 255.982529a300.446695 300.446695 0 0 1-127.991265 25.598253c-75.489248 0-153.589518-39.062934-153.589518-76.794759s78.10027-76.794759 153.589518-76.794759a166.74702 166.74702 0 0 1 127.991265 51.196506c99.474811-61.666191 102.393012-204.786023 102.393011-204.786023V358.375541c0-163.572836-143.606199-281.580782-307.179035-281.580782S255.982529 169.204452 255.982529 332.777288v409.572047H127.991265c-81.786418 0-127.991265-46.076855-127.991265-127.991265v-153.589517c0-81.914409 46.076855-127.991265 127.991265-127.991265h51.196505c11.826393-190.655788 190.348609-332.777288 383.973794-332.777288s372.147401 142.1215 383.973794 332.777288h51.196506c81.786418 0 127.991265 46.076855 127.991264 127.991265v153.589517c0 81.735222-46.204847 127.735282-127.991264 127.991265zM179.18777 409.572047H127.991265c-37.757423 0-51.196506 13.439083-51.196506 51.196506v153.589517c0 37.731825 13.439083 51.196506 51.196506 51.196506h51.196505V409.572047z m870.3406 51.196506c0-37.757423-13.439083-51.196506-51.196506-51.196506h-51.196506v255.982529h51.196506c37.757423 0 51.196506-13.464681 51.196506-51.196506v-153.589517z" fill="#777777" p-id="43963"></path></svg>