<?xml version="1.0" standalone="no"?><!DOCTYPE svg PUBLIC "-//W3C//DTD SVG 1.1//EN" "http://www.w3.org/Graphics/SVG/1.1/DTD/svg11.dtd"><svg t="1762850698404" class="icon" viewBox="0 0 1280 1024" version="1.1" xmlns="http://www.w3.org/2000/svg" p-id="2716" width="40" height="32" xmlns:xlink="http://www.w3.org/1999/xlink"><path d="M64 64c35.4 0 64 28.6 64 64v512h448V320c0-35.4 28.6-64 64-64h448c106 0 192 86 192 192v448c0 35.4-28.6 64-64 64s-64-28.6-64-64v-64H128v64c0 35.4-28.6 64-64 64S0 931.4 0 896V128c0-35.4 28.6-64 64-64z m288 192a160 160 0 1 1 0 320 160 160 0 1 1 0-320z" p-id="2717" fill="#14B8A6"></path></svg>