<?xml version="1.0" standalone="no"?><!DOCTYPE svg PUBLIC "-//W3C//DTD SVG 1.1//EN" "http://www.w3.org/Graphics/SVG/1.1/DTD/svg11.dtd"><svg t="1762850852669" class="icon" viewBox="0 0 1024 1024" version="1.1" xmlns="http://www.w3.org/2000/svg" p-id="5236" width="32" height="32" xmlns:xlink="http://www.w3.org/1999/xlink"><path d="M512 73.142857c242.285714 0 438.857143 196.571429 438.857143 438.857143s-196.571429 438.857143-438.857143 438.857143S73.142857 754.285714 73.142857 512 269.714286 73.142857 512 73.142857z m73.142857 712.557714v-108.580571c0-10.276571-8.009143-18.870857-17.700571-18.870857h-109.714286a19.017143 19.017143 0 0 0-18.870857 18.870857v108.580571a19.017143 19.017143 0 0 0 18.870857 18.870858h109.714286c9.728 0 17.700571-8.557714 17.700571-18.870858z m-1.133714-196.571428l10.276571-354.852572a11.446857 11.446857 0 0 0-5.705143-10.276571 22.016 22.016 0 0 0-13.714285-4.571429h-125.696a22.016 22.016 0 0 0-13.714286 4.571429 11.52 11.52 0 0 0-5.705143 10.276571l9.728 354.852572c0 8.009143 8.557714 14.299429 19.419429 14.299428h105.728c10.276571 0 18.870857-6.290286 19.419428-14.299428z" fill="#F97316" p-id="5237"></path></svg>