<?xml version="1.0" standalone="no"?><!DOCTYPE svg PUBLIC "-//W3C//DTD SVG 1.1//EN" "http://www.w3.org/Graphics/SVG/1.1/DTD/svg11.dtd"><svg t="1762866175981" class="icon" viewBox="0 0 1024 1024" version="1.1" xmlns="http://www.w3.org/2000/svg" p-id="22276" width="16" height="16" xmlns:xlink="http://www.w3.org/1999/xlink"><path d="M233.432 67.6c9-12.2 23.4-19.6 38.6-19.6h480c15.2 0 29.6 7.2 38.6 19.6l224 304c13.6 18.4 12.2 43.8-3 60.8l-464 512c-9 10-22 15.8-35.6 15.8s-26.4-5.8-35.6-15.8l-464-512c-15.4-17-16.6-42.4-3-60.8l224-304z m77 79.6c-6.6 5-8.4 14-4.2 21l114.8 191.2L126.632 384c-8.2 0.6-14.6 7.6-14.6 16s6.4 15.2 14.6 16l384 32h2.6l384-32c8.2-0.6 14.6-7.6 14.6-16s-6.4-15.2-14.6-16l-294.2-24.4 114.8-191.2c4.2-7 2.4-16.2-4.2-21s-15.8-4-21.4 2L512.032 344.4l-180.2-195.2c-5.6-6-14.8-6.8-21.4-2z" p-id="22277" fill="#ffffff"></path></svg>