<?xml version="1.0" standalone="no"?><!DOCTYPE svg PUBLIC "-//W3C//DTD SVG 1.1//EN" "http://www.w3.org/Graphics/SVG/1.1/DTD/svg11.dtd"><svg t="1762841044057" class="icon" viewBox="0 0 1024 1024" version="1.1" xmlns="http://www.w3.org/2000/svg" p-id="32764" width="16" height="16" xmlns:xlink="http://www.w3.org/1999/xlink"><path d="M512 64c25 0 48.2 12.8 61.6 34l433.2 690.8c11.2 17.8 17.2 38.4 17.2 59.4 0 61.8-50 111.8-111.8 111.8H111.8C50 960 0 910 0 848.2c0-21 6-41.6 17.2-59.4L450.4 98c13.2-21.2 36.6-34 61.6-34z m130 384l-130-207.2-158.2 252.2 36.6 48.8c12.8 17 38.4 17 51.2 0l51.2-68.2c12-16.2 31-25.6 51.2-25.6h98z" p-id="32765" fill="#eb6d20"></path></svg>