<?xml version="1.0" standalone="no"?><!DOCTYPE svg PUBLIC "-//W3C//DTD SVG 1.1//EN" "http://www.w3.org/Graphics/SVG/1.1/DTD/svg11.dtd"><svg t="1762852140677" class="icon" viewBox="0 0 1024 1024" version="1.1" xmlns="http://www.w3.org/2000/svg" p-id="9398" width="32" height="32" xmlns:xlink="http://www.w3.org/1999/xlink"><path d="M767.981897 585.142857c101.156571 0 182.857143 81.700571 182.857143 182.857143s-81.700571 182.857143-182.857143 182.857143-182.857143-81.700571-182.857143-182.857143a230.4 230.4 0 0 1 1.133715-19.419429l-205.714286-102.838857A182.637714 182.637714 0 0 1 73.124754 512.036571a182.637714 182.637714 0 0 1 307.419429-133.705142l205.714286-102.838858A216.027429 216.027429 0 0 1 585.124754 256.073143c0-101.156571 81.700571-182.857143 182.857143-182.857143s182.857143 81.700571 182.857143 182.857143a182.637714 182.637714 0 0 1-307.419429 133.705143L437.705326 492.617143c0.585143 6.290286 1.133714 13.129143 1.133714 19.419428s-0.585143 13.129143-1.133714 19.419429l205.714285 102.838857A183.04 183.04 0 0 1 767.981897 585.142857z" fill="#cccccc" p-id="9399"></path></svg>