<?xml version="1.0" standalone="no"?><!DOCTYPE svg PUBLIC "-//W3C//DTD SVG 1.1//EN" "http://www.w3.org/Graphics/SVG/1.1/DTD/svg11.dtd"><svg t="1762850924754" class="icon" viewBox="0 0 1024 1024" version="1.1" xmlns="http://www.w3.org/2000/svg" p-id="7193" width="32" height="32" xmlns:xlink="http://www.w3.org/1999/xlink"><path d="M416 112c0-8.8 7.2-16 16-16h160c8.8 0 16 7.2 16 16v144h-192V112z m352 144h-64V112c0-61.8-50.2-112-112-112h-160c-61.8 0-112 50.2-112 112v144H256c-70.6 0-128 57.4-128 128v448c0 70.6 57.4 128 128 128 0 35.4 28.6 64 64 64s64-28.6 64-64h256c0 35.4 28.6 64 64 64s64-28.6 64-64c70.6 0 128-57.4 128-128V384c0-70.6-57.4-128-128-128z m-416 192h320c17.6 0 32 14.4 32 32s-14.4 32-32 32H352c-17.6 0-32-14.4-32-32s14.4-32 32-32z m0 256h320c17.6 0 32 14.4 32 32s-14.4 32-32 32H352c-17.6 0-32-14.4-32-32s14.4-32 32-32z" p-id="7194" fill="#A855F7"></path></svg>