<?xml version="1.0" standalone="no"?><!DOCTYPE svg PUBLIC "-//W3C//DTD SVG 1.1//EN" "http://www.w3.org/Graphics/SVG/1.1/DTD/svg11.dtd"><svg t="1762866404790" class="icon" viewBox="0 0 1152 1024" version="1.1" xmlns="http://www.w3.org/2000/svg" p-id="25948" width="18" height="16" xmlns:xlink="http://www.w3.org/1999/xlink"><path d="M256 320h640v384H256V320z m800 192c0 53.02 42.98 96 96 96v192c0 53.02-42.98 96-96 96H96c-53.02 0-96-42.98-96-96v-192c53.02 0 96-42.98 96-96s-42.98-96-96-96v-192c0-53.02 42.98-96 96-96h960c53.02 0 96 42.98 96 96v192c-53.02 0-96 42.98-96 96z m-96-208c0-26.51-21.49-48-48-48H240c-26.51 0-48 21.49-48 48v416c0 26.51 21.49 48 48 48h672c26.51 0 48-21.49 48-48V304z" p-id="25949" fill="#eb6d20"></path></svg>