<?xml version="1.0" standalone="no"?><!DOCTYPE svg PUBLIC "-//W3C//DTD SVG 1.1//EN" "http://www.w3.org/Graphics/SVG/1.1/DTD/svg11.dtd"><svg t="1762843310450" class="icon" viewBox="0 0 1024 1024" version="1.1" xmlns="http://www.w3.org/2000/svg" p-id="49910" xmlns:xlink="http://www.w3.org/1999/xlink" width="16" height="16"><path d="M512 16C238 16 16 238 16 512s222 496 496 496 496-222 496-496S786 16 512 16z m243.2 626.2c9.4 9.4 9.4 24.6 0 34L676 755.2c-9.4 9.4-24.6 9.4-34 0L512 624l-130.2 131.2c-9.4 9.4-24.6 9.4-34 0L268.8 676c-9.4-9.4-9.4-24.6 0-34l131.2-130-131.2-130.2c-9.4-9.4-9.4-24.6 0-34l79.2-79.2c9.4-9.4 24.6-9.4 34 0l130 131.4 130.2-131.2c9.4-9.4 24.6-9.4 34 0l79.2 79.2c9.4 9.4 9.4 24.6 0 34L624 512l131.2 130.2z" p-id="49911" fill="#6B7280"></path></svg>