<?xml version="1.0" standalone="no"?><!DOCTYPE svg PUBLIC "-//W3C//DTD SVG 1.1//EN" "http://www.w3.org/Graphics/SVG/1.1/DTD/svg11.dtd"><svg t="1762850768455" class="icon" viewBox="0 0 1280 1024" version="1.1" xmlns="http://www.w3.org/2000/svg" p-id="3986" width="40" height="32" xmlns:xlink="http://www.w3.org/1999/xlink"><path d="M288 0a160 160 0 1 1 0 320 160 160 0 1 1 0-320z m736 0a160 160 0 1 1 0 320 160 160 0 1 1 0-320zM0 597.4C0 479.6 95.6 384 213.4 384h85.4c31.8 0 62 7 89.2 19.4-2.6 14.4-3.8 29.4-3.8 44.6 0 76.4 33.6 145 86.6 192H42.6C19.2 640 0 620.8 0 597.4zM810.6 640h-1.4c53.2-47 86.6-115.6 86.6-192 0-15.2-1.4-30-3.8-44.6 27.2-12.6 57.4-19.4 89.2-19.4h85.4c117.8 0 213.4 95.6 213.4 213.4 0 23.6-19.2 42.6-42.6 42.6H810.6zM448 448a192 192 0 1 1 384 0 192 192 0 1 1-384 0z m-192 522.6c0-147.2 119.4-266.6 266.6-266.6h234.8c147.2 0 266.6 119.4 266.6 266.6 0 29.4-23.8 53.4-53.4 53.4H309.4c-29.4 0-53.4-23.8-53.4-53.4z" p-id="3987" fill="#6366F1"></path></svg>