<?xml version="1.0" standalone="no"?><!DOCTYPE svg PUBLIC "-//W3C//DTD SVG 1.1//EN" "http://www.w3.org/Graphics/SVG/1.1/DTD/svg11.dtd"><svg t="1762850638348" class="icon" viewBox="0 0 1280 1024" version="1.1" xmlns="http://www.w3.org/2000/svg" p-id="1549" width="40" height="32" xmlns:xlink="http://www.w3.org/1999/xlink"><path d="M192 256a256 256 0 1 1 512 0 256 256 0 1 1-512 0zM0 964.6C0 767.6 159.6 608 356.6 608h182.8c197 0 356.6 159.6 356.6 356.6 0 32.8-26.6 59.4-59.4 59.4H59.4C26.6 1024 0 997.4 0 964.6zM944 400h288c26.6 0 48 21.4 48 48s-21.4 48-48 48H944c-26.6 0-48-21.4-48-48s21.4-48 48-48z" p-id="1550" fill="#3B82F6"></path></svg>